<svg xmlns="http://www.w3.org/2000/svg" xmlns:xlink="http://www.w3.org/1999/xlink" width="32" height="32" viewBox="0 0 32 32">
  <defs>
    <clipPath id="clip-Artboard_15">
      <rect width="32" height="32"/>
    </clipPath>
  </defs>
  <g id="Artboard_15" data-name="Artboard – 15" clip-path="url(#clip-Artboard_15)">
    <rect width="32" height="32" fill="#2a2a2a"/>
    <path id="Path_44524" data-name="Path 44524" d="M-525.245,737.275l.01-.082c5.324-.446,8.454-2.925,8.454-6.907,0-3.173-1.753-4.794-5.772-4.794-2.479,0-3.739.162-5.4.162-.937,0-2.116-.162-3.256-.162a.46.46,0,0,0-.523.389.475.475,0,0,0,0,.1c0,.326.326.365,1.252.486.526.083,1.017.326,1.017,1.017,0,.651-3.415,11.987-5.489,20.443-.406,1.666-1.1,2.234-2.194,2.357-.771.08-1.1.12-1.1.569,0,.325.251.406.934.406.369,0,2.439-.161,3.576-.161,3.255,0,4.39.161,6.178.161a8.358,8.358,0,0,0,6.909-2.357,8.636,8.636,0,0,0,2.234-6.058C-518.419,738.9-521.589,737.275-525.245,737.275Zm-1.382-10.648c1.1-.039,2.233-.163,3.373-.163,2.755,0,3.862,1.252,3.862,3.333,0,4.257-3.048,6.989-8.617,6.989-.446,0-.854,0-1.3-.04Zm3.047,21.827a8.539,8.539,0,0,1-6.42,1.83c-1.791,0-2.357-.5-2.357-1.3a87.209,87.209,0,0,1,2.642-10.974c.039-.161.162-.251.488-.251l1.988.006c4.31,0,5.893,1.219,5.893,4.429A9.515,9.515,0,0,1-523.581,748.454Z" transform="translate(543.25 -722.486)" fill="#bd8739"/>
  </g>
</svg>
